<svg width="36" height="36" viewBox="0 0 36 36" fill="none" xmlns="http://www.w3.org/2000/svg">
<path d="M23.04 36C27.6712 36 29.987 36 31.7432 35.0703C33.1604 34.3199 34.3199 33.1604 35.0703 31.7432C36 29.987 36 27.6712 36 23.04V12.96C36 8.32877 36 6.01302 35.0703 4.25684C34.3199 2.83958 33.1604 1.68009 31.7432 0.929688C29.987 -3.02791e-05 27.6712 0 23.04 0H12.96C8.32877 0 6.01302 -3.04227e-05 4.25684 0.929688C2.83958 1.68009 1.68009 2.83958 0.929688 4.25684C-3.02791e-05 6.01302 0 8.32877 0 12.96V23.04C0 27.6712 -3.04227e-05 29.987 0.929688 31.7432C1.68009 33.1604 2.83958 34.3199 4.25684 35.0703C6.01302 36 8.32877 36 12.96 36H23.04ZM15.2344 27C10.1907 27 9.00002 25.7995 9 20.7559V15.2344C9.00001 10.2 10.2004 9 15.2441 9H20.7656C25.8094 9 27 10.2004 27 15.2441V20.7656C27 25.8093 25.7996 27 20.7559 27H15.2344ZM23.5312 21.8438C23.9061 21.8438 24.0937 21.6564 23.9814 21.291C23.8596 20.9254 23.4375 20.3904 22.875 19.7529C22.5657 19.3874 22.1059 19.0035 21.9746 18.8066C21.7779 18.5538 21.8343 18.4408 21.9746 18.2256C21.9746 18.2162 23.5774 15.9665 23.7373 15.1973C23.8217 14.916 23.7375 14.7188 23.3438 14.7188H22.0312C21.6938 14.7188 21.5434 14.8969 21.459 15.0938C21.4512 15.1129 20.788 16.7316 19.8467 17.7754C19.5375 18.0845 19.406 18.1787 19.2373 18.1787C19.153 18.1786 19.0314 18.0843 19.0312 17.8037V15.1973C19.0312 14.8598 18.9375 14.7188 18.6562 14.7188H16.5938C16.3876 14.7188 16.256 14.878 16.2559 15.0186C16.256 15.3372 16.725 15.4128 16.7812 16.2939V18.2256C16.7812 18.6469 16.7058 18.7217 16.5371 18.7217C16.0963 18.7208 15.0094 17.0902 14.3721 15.2158C14.2408 14.869 14.1187 14.7188 13.7812 14.7188H12.4688C12.0938 14.7188 12.0186 14.8969 12.0186 15.0938C12.0187 15.4409 12.4598 17.1665 14.0908 19.4443C15.1783 21.0003 16.7064 21.8438 18.0938 21.8438C18.9278 21.8437 19.0312 21.6564 19.0312 21.3379V20.1562C19.0313 19.7814 19.1062 19.7061 19.3779 19.7061C19.5748 19.7061 19.9035 19.7998 20.6816 20.5498C21.5722 21.4404 21.7219 21.8437 22.2188 21.8438H23.5312Z" fill="white"/>
</svg>
