<?xml version="1.0" encoding="UTF-8"?>
<svg id="Layer_2" data-name="Layer 2" xmlns="http://www.w3.org/2000/svg" viewBox="0 0 408 44.46">
  <defs>
    <style>
      .cls-1 {
        fill: #fff;
      }
    </style>
  </defs>
  <g id="_охранное_поле" data-name="охранное поле">
    <g>
      <path class="cls-1" d="M257.42,0h0v44.45h14.8v-19.45h5.35l13.15,19.43h12.68l-13.15-19.43h8.39l5.28-3.47V3.47l-5.28-3.47h-41.22ZM293.37,19.44h-21.15V5.56h21.15v13.89Z"/>
      <path class="cls-1" d="M145.46,3.48L140.17.01h-31.7l-5.28,3.47h-.01v2.08s0,0,0,0h0v38.88h14.8v-19.44h16.92v19.44h10.56V5.57h.01,0s0-2.08,0-2.08h-.01ZM134.9,19.45h-16.92V5.57h16.92v13.89Z"/>
      <polygon class="cls-1" points="153.94 3.48 153.93 3.48 153.94 44.45 168.72 44.45 168.72 25.01 181.42 25.01 181.42 19.45 168.72 19.45 168.72 5.57 196.22 5.57 196.22 .01 159.22 .01 153.94 3.48"/>
      <path class="cls-1" d="M206.74.01l-5.28,3.47v.76h-.01v36.73h.02s5.28,3.47,5.28,3.47h35.94l5.28-3.47V3.48L242.68.01h-35.94ZM237.39,38.89h-21.15V5.57h21.15v33.33Z"/>
      <polygon class="cls-1" points="36.4 0 35.03 0 32.17 0 5.21 0 0 3.48 0 21.54 5.21 25.01 27.09 25.01 27.09 38.9 9.51 38.9 9.51 36.12 0 36.12 0 40.98 5.03 44.26 5.21 44.46 36.47 44.46 41.68 40.98 41.68 22.93 36.47 19.45 14.58 19.45 14.58 5.56 32.17 5.56 32.17 8.31 41.68 8.31 41.68 3.45 36.44 0 36.4 0"/>
      <polygon class="cls-1" points="89.44 .01 87.76 .01 85.21 .01 57.73 .01 52.45 3.48 52.44 3.48 52.45 40.98 57.73 44.45 85.21 44.45 89.44 44.45 89.48 44.45 94.73 41.01 94.73 36.14 85.21 36.14 85.21 38.89 67.23 38.89 67.23 25.01 79.93 25.01 79.93 19.45 67.23 19.45 67.23 5.57 85.21 5.57 85.21 8.32 94.73 8.32 94.73 3.46 89.48 .01 89.44 .01"/>
      <polygon class="cls-1" points="402.76 .01 402.72 .01 401.04 .01 398.49 .01 371.01 .01 365.72 3.48 365.71 3.48 365.72 40.98 371.01 44.45 398.49 44.45 402.72 44.45 402.76 44.45 408 41.01 408 36.14 398.49 36.14 398.49 38.89 380.51 38.89 380.51 25.01 393.2 25.01 393.2 19.45 380.51 19.45 380.51 5.57 398.49 5.57 398.49 8.32 408 8.32 408 3.46 402.76 .01"/>
      <polygon class="cls-1" points="350.97 .01 349.29 .01 346.74 .01 319.26 .01 313.98 3.48 313.96 3.48 313.98 40.98 319.26 44.45 346.74 44.45 350.97 44.45 351.01 44.45 356.25 41.01 356.25 36.14 346.74 36.14 346.74 38.89 328.76 38.89 328.76 5.57 346.74 5.57 346.74 8.32 356.25 8.32 356.25 3.46 351.01 .01 350.97 .01"/>
    </g>
  </g>
</svg>