<svg width="36" height="36" viewBox="0 0 36 36" fill="none" xmlns="http://www.w3.org/2000/svg">
<path d="M23.04 0C27.6712 0 29.987 -3.02791e-05 31.7432 0.929688C33.1604 1.68009 34.3199 2.83958 35.0703 4.25684C36 6.01302 36 8.32877 36 12.96V23.04C36 27.6712 36 29.987 35.0703 31.7432C34.3199 33.1604 33.1604 34.3199 31.7432 35.0703C29.987 36 27.6712 36 23.04 36H12.96C8.32877 36 6.01302 36 4.25684 35.0703C2.83958 34.3199 1.68009 33.1604 0.929688 31.7432C-3.04227e-05 29.987 0 27.6712 0 23.04V12.96C0 8.32877 -3.02791e-05 6.01302 0.929688 4.25684C1.68009 2.83958 2.83958 1.68009 4.25684 0.929688C6.01302 -3.04227e-05 8.32877 0 12.96 0H23.04ZM26.9922 11.6104C27.129 10.0603 25.5037 10.6779 25.4736 10.6895C25.4736 10.6895 21.8836 12.1619 20.8252 12.6221C18.0641 13.7726 10.1035 17.04 10.1035 17.04C8.21684 17.7763 9.32129 18.4668 9.32129 18.4668C9.33721 18.4723 10.9388 19.0206 12.3125 19.4326C13.6798 19.8428 14.4148 19.3953 14.4287 19.3867C14.4287 19.3867 17.6508 17.2705 20.918 15.0156C23.2181 13.4516 22.6664 14.7386 22.1143 15.291C20.9178 16.4875 18.9389 18.375 17.2822 19.8936C16.5463 20.5377 16.9143 21.0891 17.2363 21.3652C18.4326 22.3774 21.6987 24.4483 21.8838 24.5869C22.1138 24.771 23.4023 25.5989 24.1846 25.415C24.9633 25.2318 25.0587 24.1824 25.0596 24.1729C25.0596 24.1729 25.6577 20.3995 26.21 16.9482C26.578 14.5096 26.9461 12.2549 26.9922 11.6104Z" fill="white"/>
</svg>
